# xmcd
#
# Track frame offsets:
# 150
# 15474
# 32534
# 50295
# 69496
# 86522
# 102101
# 120196
# 134967
# 155508
# 171246
# 186851
# 202014
# 218930
# 236713
# 258764
#
# Disc length: 3665 seconds
#
#
# Revision: 0
# Processed by: cddbd v1.5.2PL0 Copyright (c) Steve Scherf et al.
# Submitted via: FreeRIP 2.95 
#
DISCID=d90e4f10
DTITLE=Eduardo Costa - No Buteco II
DYEAR=2006
DGENRE=Country
TTITLE0=E Isso Ai
TTITLE1=Culpados
TTITLE2=Essa Moca
TTITLE3=Abandonado
TTITLE4=Bandida
TTITLE5=Toneladas De Paixao
TTITLE6=Pedindo Amor
TTITLE7=Ta No Meu Coracao
TTITLE8=Interior
TTITLE9=A Vida Tem Dessas Coisas
TTITLE10=Saudade
TTITLE11=Meu Anjo
TTITLE12=Feito Eu
TTITLE13=Tudo De Novo
TTITLE14=Amor De Violeiro
TTITLE15=Que Sofrimento E Esse
EXTD=
EXTT0=
EXTT1=
EXTT2=
EXTT3=
EXTT4=
EXTT5=
EXTT6=
EXTT7=
EXTT8=
EXTT9=
EXTT10=
EXTT11=
EXTT12=
EXTT13=
EXTT14=
EXTT15=
PLAYORDER=
